{"title":"Star Wars:Episode 7:(2015)MPEG-4[DaScubaDude]","uid":14258799,"size":1383166145,"categoryP":"video","categoryS":"movies","magnet":"?xt=urn:btih:8aed58a91803c15e40e36d5b19fbf512f8ab74a1&amp;dn=Star+Wars%3AEpisode+7%3A%282015%29MPEG-4%5BDaScubaDude%5D&amp;tr=udp%3A%2F%2Ftracker.leechers-paradise.org%3A6969&amp;tr=udp%3A%2F%2Fzer0day.ch%3A1337&amp;tr=udp%3A%2F%2Fopen.demonii.com%3A1337&amp;tr=udp%3A%2F%2Ftracker.coppersurfer.tk%3A6969&amp;tr=udp%3A%2F%2Fexodus.desync.com%3A6969","seeders":3,"leechers":3,"uploader":"dascuba","files":1,"time":1460229927,"description":"Star Wars: Episode VII - The Force Awakens (2015)\r\nPG-13  |  135 min  |  Action, Adventure, Fantasy  |  18 December 2015 (USA)\r\n8.3 Your rating:    -/10   Ratings: 8.3/10 from 493,771 users   Metascore: 81/100\r\nReviews: 3,654 user | 741 critic | 52 from Metacritic.com\r\nThree decades after the defeat of the Galactic Empire, a new threat arises. The First Order attempts to rule the galaxy and only a ragtag group of heroes can stop them, along with the help of the Resistance.\r\n\r\nDirector: J.J. Abrams\r\nWriters: Lawrence Kasdan, J.J. Abrams,\r\nStars: Daisy Ridley, John Boyega, Oscar Isaac\r\n\r\nGeneral\r\nComplete name                            : Star Wars 7THE_FORCE_AWAKENS_Title1.mp4\r\nFormat                                   : MPEG-4\r\nFormat profile                           : Base Media\r\nCodec ID                                 : isom\r\nFile size                                : 1.29 GiB\r\nDuration                                 : 2h 17mn\r\nOverall bit rate                         : 1 337 Kbps\r\nMovie name                               : THE_FORCE_AWAKENS\r\nGenre                                    : Action\r\nWriting application                      : Lavf54.6.100\r\n\r\nVideo\r\nID                                       : 1\r\nFormat                                   : AVC\r\nFormat/Info                              : Advanced Video Codec\r\nFormat profile                           :   \r\nFormat settings, CABAC                   : No\r\nFormat settings, ReFrames                : 6 frames\r\nFormat settings, GOP                     : M=1, N=60\r\nCodec ID                                 : avc1\r\nCodec ID/Info                            : Advanced Video Coding\r\nDuration                                 : 2h 17mn\r\nBit rate                                 : 1 202 Kbps\r\nWidth                                    : 720 pixels\r\nHeight                                   : 404 pixels\r\nDisplay aspect ratio                     : 16:9\r\nFrame rate mode                          : Constant\r\nFrame rate                               : 29.970 fps\r\nColor space                              : YUV\r\nChroma subsampling                       : 4:2:0\r\nBit depth                                : 8 bits\r\nScan type                                : Progressive\r\nBits/(Pixel*Frame)                       : 0.138\r\nStream size                              : 1.16 GiB (90%)\r\n\r\nAudio\r\nID                                       : 2\r\nFormat                                   : AAC\r\nFormat/Info                              : Advanced Audio Codec\r\nFormat profile                           : LC\r\nCodec ID                                 : 40\r\nDuration                                 : 2h 17mn\r\nBit rate mode                            : Constant\r\nBit rate                                 : 128 Kbps\r\nChannel(s)                               : 2 channels\r\nChannel positions                        : Front: L R\r\nSampling rate                            : 44.1 KHz\r\nCompression mode                         : Lossy\r\nStream size                              : 126 MiB (10%)","torrent":{"xt":"urn:btih:8aed58a91803c15e40e36d5b19fbf512f8ab74a1","amp;dn":"Star+Wars%3AEpisode+7%3A%282015%29MPEG-4%5BDaScubaDude%5D","amp;tr":["udp%3A%2F%2Ftracker.leechers-paradise.org%3A6969","udp%3A%2F%2Fzer0day.ch%3A1337","udp%3A%2F%2Fopen.demonii.com%3A1337","udp%3A%2F%2Ftracker.coppersurfer.tk%3A6969","udp%3A%2F%2Fexodus.desync.com%3A6969"],"infoHash":"8aed58a91803c15e40e36d5b19fbf512f8ab74a1","infoHashBuffer":{"type":"Buffer","data":[138,237,88,169,24,3,193,94,64,227,109,91,25,251,245,18,248,171,116,161]},"announce":[],"urlList":[]}}